<svg id="Layer_1" data-name="Layer 1" xmlns="http://www.w3.org/2000/svg" viewBox="0 0 874.67 151.83"><defs><style>.cls-1{fill:#eaeaea;}.cls-2{fill:#3a3a3a;}</style></defs><title>navlogo</title><g id="gus.create"><g id="Create"><path class="cls-1" d="M940.82,553.19A24.79,24.79,0,0,1,936,557.5,24.28,24.28,0,0,1,906,555a23.82,23.82,0,0,1-7.32-15.41c-.72-10.64,6.28-17.57,7.29-18.54a24.26,24.26,0,0,1,30.1-2.48,24.06,24.06,0,0,1,6.78,6.89H964a44.46,44.46,0,1,0-.77,27.74Z" transform="translate(-473.11 -464.09)"/><path class="cls-1" d="M972.73,582.87h20.42v-53a17.49,17.49,0,0,1,1.12-4.11,17,17,0,0,1,4.36-6.35,16.33,16.33,0,0,1,11.2-3.74V493.45c-.55,0-1.37,0-2.36,0-13.16.48-22.39,8.87-23.29,9.72-10.9,10.2-11.3,23.65-11.33,26Z" transform="translate(-473.11 -464.09)"/><path class="cls-1" d="M1077.78,547h28.94a44.49,44.49,0,1,0-3.28,9.92h-25.53a23.66,23.66,0,0,1-15.57,5.4c-11.28,0-20.42-6.84-20.42-15.28h35.86Zm-35.86-17.68c0-8.44,9.14-15.28,20.42-15.28s20.42,6.84,20.42,15.28Z" transform="translate(-473.11 -464.09)"/><path class="cls-1" d="M1205.29,535.27a44.46,44.46,0,1,0-18.61,39.12h0v8.22h18.7V535.27Zm-43.24,26.41a23.54,23.54,0,1,1,24-23.53A23.74,23.74,0,0,1,1162.05,561.68Z" transform="translate(-473.11 -464.09)"/><path class="cls-1" d="M1235,515h15V492.67h-15.13V464.09l-20.64,4.76h.09v46.53h-.09l.19,35.94a36.9,36.9,0,0,0,10,20.73c2,2.05,9.54,9.55,20.83,10.46a27.58,27.58,0,0,0,4.58,0v-21c-1.21.07-6.62.28-10.75-3.46-.9-.81-3.94-3.57-4.1-7.47a4.61,4.61,0,0,1,0-.65Z" transform="translate(-473.11 -464.09)"/><path class="cls-1" d="M1318,547h28.94a44.49,44.49,0,1,0-3.28,9.92h-25.53a23.68,23.68,0,0,1-15.57,5.4c-11.28,0-20.42-6.84-20.42-15.28H1318Zm-35.86-17.68c0-8.44,9.14-15.28,20.42-15.28s20.42,6.84,20.42,15.28Z" transform="translate(-473.11 -464.09)"/></g><rect id="Ponto_3" data-name="Ponto 3" class="cls-1" x="373.9" y="102.08" width="16.43" height="16.43" rx="8.22"/><g id="Gus_3" data-name="Gus 3"><path class="cls-1" d="M661.13,579.53V535.07A44.46,44.46,0,1,0,582,562.91l0,.06.06.08c.22.26.43.52.65.77l.09.11a44.45,44.45,0,0,0,20.73,13.64l.14,0,.15,0,1,.28.42.12.77.19.5.12.57.13,1.65.33h0l1,.17.11,0,1.05.15h0a45,45,0,0,0,9,.23h.1l.93-.08.2,0h0l.8-.1a44.12,44.12,0,0,0,16.17-5.27l.11-.06.6-.34,0,0,.55-.33.21-.12.79-.49.1-.07.76-.5.16-.11.14-.09a19.86,19.86,0,0,1-2.67,11.39c-4,6.67-10.89,8.5-13.36,9.15-10.25,2.73-18.83-2.2-20.73-3.36H576.51c0,.15,0,.3,0,.47a5,5,0,0,1,0,.56,47.9,47.9,0,0,0,22.42,21.85c1.65.76,20.94,9.22,40.16-.75,1.51-.78,20.77-11.1,22-28A24.32,24.32,0,0,0,661.13,579.53ZM601.6,516.85a24.31,24.31,0,0,1,29.17-.79A23.63,23.63,0,0,1,639.19,527c3.67,9.92-1,18.62-1.55,19.58A24.31,24.31,0,0,1,622.35,558c-1,.23-12.43,2.77-21.55-5.28a23.92,23.92,0,0,1-7.93-15.24C591.64,525.2,601,517.37,601.6,516.85Z" transform="translate(-473.11 -464.09)"/><path class="cls-1" d="M749.58,492h-22v51.46a16.91,16.91,0,0,1-33.81,0V492h-22v50.62h0c0,.28,0,.56,0,.84a38.95,38.95,0,1,0,77.89,0c0-.28,0-.56,0-.84h0Z" transform="translate(-473.11 -464.09)"/><path class="cls-1" d="M827.92,541.64a23.52,23.52,0,0,0-7.8-8c-5.23-3.18-11.65-3.89-16.82-4.46l-.27,0c-6.26-.68-8.53-.06-14.06-1.68-6-1.75-7.39-3.64-7.93-4.95a8.29,8.29,0,0,1,.51-6.91c1.56-2.8,4.35-3.77,6.77-4.58a23.32,23.32,0,0,1,13.78,0,16.54,16.54,0,0,1,6.63,4.58,7.14,7.14,0,0,1,1.73,4c0,.23,0,.42,0,.54H833v-.27a39.19,39.19,0,0,0-3.59-9.45,35.53,35.53,0,0,0-10.9-12.3l-.45-.3c-9.12-6-21.41-6.24-21.95-6.25a39.45,39.45,0,0,0-22.67,6.25c-3.49,2.32-12.15,8.07-14.09,18.6-.29,1.53-1.68,9.25,2.91,16.11a22,22,0,0,0,8.67,7.23c5.61,3,10.92,3.5,17.43,4.11,6.23.59,8.71.12,14.06,1.68,6,1.75,7.4,3.64,7.94,5a8.39,8.39,0,0,1-.51,6.92c-1.56,2.8-4.35,3.77-6.78,4.57a23.2,23.2,0,0,1-13.77,0,16.51,16.51,0,0,1-6.63-4.57,7,7,0,0,1-1.73-4,4.57,4.57,0,0,1,0-.53H758.45c.7,3.19,3.69,15,14.95,23.07a38.73,38.73,0,0,0,22.77,7,42.34,42.34,0,0,0,23.25-6.73l.41-.28.69-.49a28.31,28.31,0,0,0,11.26-16.53C833.26,550.24,829.09,543.52,827.92,541.64Z" transform="translate(-473.11 -464.09)"/></g></g><rect id="Ponto_3-2" data-name="Ponto 3" class="cls-2" x="505.51" y="504.93" width="22.91" height="22.91" rx="11.46" transform="translate(43.44 -678.39) rotate(45)"/><rect id="Ponto_3-3" data-name="Ponto 3" class="cls-2" x="473.11" y="504.93" width="22.91" height="22.91" rx="11.46" transform="translate(33.95 -655.48) rotate(45)"/><rect id="Ponto_3-4" data-name="Ponto 3" class="cls-2" x="473.11" y="537.33" width="22.91" height="22.91" rx="11.46" transform="translate(56.86 -645.99) rotate(45)"/><rect class="cls-2" x="11.46" y="40.85" width="32.4" height="22.91"/><rect class="cls-2" x="468.37" y="521.87" width="32.4" height="22.91" transform="translate(544.78 -415.33) rotate(90)"/><rect id="Ponto_3-5" data-name="Ponto 3" class="cls-2" x="538.25" y="570.07" width="22.91" height="22.91" rx="11.46" transform="translate(54.1 917.34) rotate(-135)"/><rect id="Ponto_3-6" data-name="Ponto 3" class="cls-2" x="538.25" y="537.67" width="22.91" height="22.91" rx="11.46" transform="translate(77.01 862.03) rotate(-135)"/><rect class="cls-2" x="44.19" y="105.98" width="32.4" height="22.91"/><rect class="cls-2" x="533.51" y="555.61" width="32.4" height="22.91" transform="translate(643.66 -446.73) rotate(90)"/><rect id="Ponto_3-7" data-name="Ponto 3" class="cls-2" x="505.85" y="570.07" width="22.91" height="22.91" rx="11.46" transform="translate(-1.21 894.43) rotate(-135)"/></svg>